<svg width="101" height="100" viewBox="0 0 101 100" fill="none" xmlns="http://www.w3.org/2000/svg">
<g id="vuesax/linear/smileys">
<g id="smileys">
<path id="Vector" d="M58.8333 25.8328V41.6663C47.2083 41.8747 42.3749 46.708 42.1666 58.333H26.3333C13.8333 58.333 8.83325 53.3332 8.83325 40.8332V25.8328C8.83325 13.3328 13.8333 8.33301 26.3333 8.33301H41.3332C53.8332 8.33301 58.8333 13.3328 58.8333 25.8328Z" fill="#F09223"/>
<path id="Vector_2" d="M29.5001 24.4585C27.2917 22.9585 24.3751 22.9586 22.1667 24.5419" stroke="white" stroke-width="4" stroke-miterlimit="10" stroke-linecap="round" stroke-linejoin="round"/>
<path id="Vector_3" d="M46.1666 24.4585C43.9582 22.9585 41.0416 22.9586 38.8333 24.5419" stroke="white" stroke-width="4" stroke-miterlimit="10" stroke-linecap="round" stroke-linejoin="round"/>
<path id="Vector_4" d="M34.4999 47.5839H24.8333C23.5833 47.5839 22.5833 46.5838 22.5833 45.3338C22.5833 39.1254 27.6249 34.084 33.8333 34.084C36.4999 34.084 38.9582 35.0005 40.8749 36.5422" stroke="white" stroke-width="4" stroke-miterlimit="10" stroke-linecap="round" stroke-linejoin="round"/>
<path id="Vector_5" d="M92.1667 59.1668V74.1672C92.1667 86.6672 87.1667 91.667 74.6667 91.667H59.6668C47.1668 91.667 42.1667 86.6672 42.1667 74.1672V58.3337C42.3751 46.7087 47.2084 41.8753 58.8334 41.667H74.6667C87.1667 41.667 92.1667 46.6668 92.1667 59.1668Z" stroke="white" stroke-width="4" stroke-linecap="round" stroke-linejoin="round"/>
<path id="Vector_6" d="M62.8333 56.7504C60.625 58.2504 57.7083 58.2503 55.5 56.667" stroke="white" stroke-width="4" stroke-miterlimit="10" stroke-linecap="round" stroke-linejoin="round"/>
<path id="Vector_7" d="M79.5001 56.7504C77.2917 58.2504 74.3751 58.2503 72.1667 56.667" stroke="white" stroke-width="4" stroke-miterlimit="10" stroke-linecap="round" stroke-linejoin="round"/>
<path id="Vector_8" d="M58.1666 67.417H76.1666C77.4166 67.417 78.4166 68.4166 78.4166 69.6666C78.4166 75.875 73.375 80.917 67.1666 80.917C60.9583 80.917 55.9166 75.875 55.9166 69.6666C55.9166 68.4166 56.9166 67.417 58.1666 67.417Z" stroke="white" stroke-width="4" stroke-miterlimit="10" stroke-linecap="round" stroke-linejoin="round"/>
</g>
</g>
</svg>
