<svg width="64" height="64" viewBox="0 0 64 64" fill="none" xmlns="http://www.w3.org/2000/svg">
<path id="Vector" d="M61.5911 38.6312C60.8483 37.8811 59.9833 37.3663 59.0636 37.127C58.1439 36.8877 57.1945 36.9303 56.2895 37.2517L55.118 37.6072C61.0162 30.4179 63.9992 23.2926 63.9992 16.3558C63.9992 7.33895 58.4698 0.000317834 51.6712 0.000317834C49.7539 -0.0154373 47.8601 0.554747 46.1401 1.66565C44.4201 2.77656 42.9212 4.39762 41.7622 6.40029C40.6032 4.39762 39.1043 2.77656 37.3843 1.66565C35.6643 0.554747 33.7705 -0.0154373 31.8532 0.000317834C25.0546 0.000317834 19.5252 7.33895 19.5252 16.3558C19.5252 20.402 20.5096 24.3522 22.5869 28.5726C20.8841 28.9169 19.3103 29.9674 18.0961 31.5699L11.8019 39.8223H3.79657C2.78965 39.8223 1.82398 40.3468 1.11199 41.2803C0.399994 42.2138 0 43.4799 0 44.8001V59.0222C0 60.3424 0.399994 61.6085 1.11199 62.542C1.82398 63.4756 2.78965 64 3.79657 64H31.9996C32.1331 64 32.2661 63.9785 32.3955 63.936L49.7513 58.2471C49.8334 58.2186 49.914 58.1829 49.9926 58.1405L60.52 52.2667L60.6095 52.2134C61.5402 51.6039 62.3374 50.6938 62.9258 49.5688C63.5142 48.4438 63.8744 47.141 63.9726 45.7829C64.0708 44.4249 63.9038 43.0565 63.4871 41.8065C63.0705 40.5566 62.418 39.4663 61.5911 38.6383V38.6312ZM31.8532 4.26696C33.6426 4.23566 35.3985 4.90511 36.8961 6.18964C38.3937 7.47417 39.5649 9.31536 40.2599 11.4776C40.3825 11.8689 40.591 12.2035 40.859 12.4391C41.127 12.6746 41.4423 12.8003 41.7649 12.8003C42.0876 12.8003 42.4029 12.6746 42.6709 12.4391C42.9389 12.2035 43.1474 11.8689 43.27 11.4776C43.965 9.31536 45.1362 7.47417 46.6338 6.18964C48.1314 4.90511 49.8872 4.23566 51.6767 4.26696C56.5905 4.26696 60.745 9.80293 60.745 16.3558C60.745 23.5522 56.3573 31.6446 48.0537 39.7335L44.0212 40.9494C44.4233 39.5505 44.5607 38.0445 44.4215 36.5606C44.2823 35.0767 43.8707 33.6592 43.222 32.4297C42.5733 31.2002 41.7068 30.1953 40.6968 29.5012C39.6869 28.8071 38.5636 28.4446 37.4233 28.4446H26.4865C23.9617 24.0606 22.7794 20.1993 22.7794 16.3558C22.7794 9.80293 26.9339 4.26696 31.8532 4.26696ZM3.2542 59.0222V44.8001C3.2542 44.6115 3.31134 44.4306 3.41305 44.2973C3.51477 44.1639 3.65272 44.089 3.79657 44.089H10.8473V59.7334H3.79657C3.65272 59.7334 3.51477 59.6584 3.41305 59.5251C3.31134 59.3917 3.2542 59.2108 3.2542 59.0222ZM59.1939 48.3556L48.8347 54.1405L31.7989 59.7334H14.1015V42.841L20.3957 34.585C20.848 33.9889 21.386 33.5163 21.9786 33.1947C22.5712 32.873 23.2065 32.7087 23.8479 32.7113H37.4233C38.4302 32.7113 39.3959 33.2357 40.1079 34.1692C40.8199 35.1027 41.2198 36.3688 41.2198 37.689C41.2198 39.0092 40.8199 40.2753 40.1079 41.2088C39.3959 42.1423 38.4302 42.6668 37.4233 42.6668H29.8302C29.3986 42.6668 28.9848 42.8915 28.6796 43.2916C28.3745 43.6917 28.2031 44.2343 28.2031 44.8001C28.2031 45.3659 28.3745 45.9085 28.6796 46.3086C28.9848 46.7087 29.3986 46.9334 29.8302 46.9334H38.508C38.6303 46.9336 38.7522 46.9157 38.8714 46.8801L57.0407 41.401L57.1058 41.3797C57.7896 41.1352 58.5182 41.2307 59.1517 41.6477C59.7851 42.0647 60.2787 42.7738 60.5377 43.639C60.7966 44.5041 60.8027 45.4641 60.5546 46.3347C60.3066 47.2053 59.822 47.925 59.1939 48.3556Z" fill="#F09223"/>
</svg>
