<svg width="132" height="100" viewBox="0 0 132 100" fill="none" xmlns="http://www.w3.org/2000/svg">
<g id="vuesax/linear/heart">
<g id="heart">
<path id="Vector" d="M53.0833 86.7086C51.6666 87.2086 49.3333 87.2086 47.9166 86.7086C35.8333 82.5836 8.83325 65.3753 8.83325 36.2087C8.83325 23.3337 19.2083 12.917 31.9999 12.917C39.5833 12.917 46.2916 16.5837 50.4999 22.2503C54.7083 16.5837 61.4583 12.917 68.9999 12.917C81.7916 12.917 92.1666 23.3337 92.1666 36.2087C92.1666 65.3753 65.1666 82.5836 53.0833 86.7086Z" fill="#F09223"/>
<path id="Vector_2" d="M90.5833 86.7087C89.1666 87.2087 86.8333 87.2087 85.4166 86.7087C73.3333 82.5837 46.3333 65.3753 46.3333 36.2087C46.3333 23.3337 56.7083 12.917 69.4999 12.917C77.0833 12.917 83.7916 16.5837 87.9999 22.2503C92.2083 16.5837 98.9583 12.917 106.5 12.917C119.292 12.917 129.667 23.3337 129.667 36.2087C129.667 65.3753 102.667 82.5837 90.5833 86.7087Z" stroke="white" stroke-width="4" stroke-linecap="round" stroke-linejoin="round"/>
</g>
</g>
</svg>
