<svg width="64" height="64" viewBox="0 0 64 64" fill="none" xmlns="http://www.w3.org/2000/svg">
<path id="Vector" d="M16 25.5C16 26.4093 16.3612 27.2814 17.0042 27.9244C17.6472 28.5674 18.5193 28.9286 19.4286 28.9286C20.3379 28.9286 21.21 28.5674 21.8529 27.9244C22.4959 27.2814 22.8571 26.4093 22.8571 25.5C22.8571 24.5907 22.4959 23.7186 21.8529 23.0756C21.21 22.4327 20.3379 22.0714 19.4286 22.0714C18.5193 22.0714 17.6472 22.4327 17.0042 23.0756C16.3612 23.7186 16 24.5907 16 25.5ZM41.1429 25.5C41.1429 26.4093 41.5041 27.2814 42.1471 27.9244C42.79 28.5674 43.6621 28.9286 44.5714 28.9286C45.4807 28.9286 46.3528 28.5674 46.9958 27.9244C47.6388 27.2814 48 26.4093 48 25.5C48 24.5907 47.6388 23.7186 46.9958 23.0756C46.3528 22.4327 45.4807 22.0714 44.5714 22.0714C43.6621 22.0714 42.79 22.4327 42.1471 23.0756C41.5041 23.7186 41.1429 24.5907 41.1429 25.5ZM32 0C14.3286 0 0 14.3286 0 32C0 49.6714 14.3286 64 32 64C49.6714 64 64 49.6714 64 32C64 14.3286 49.6714 0 32 0ZM50.7857 50.7857C48.3429 53.2286 45.5 55.1429 42.3357 56.4857C39.0714 57.8714 35.5929 58.5714 32 58.5714C28.4071 58.5714 24.9286 57.8714 21.6571 56.4857C18.4977 55.1514 15.6277 53.2155 13.2071 50.7857C10.7643 48.3429 8.85 45.5 7.50714 42.3357C6.12857 39.0714 5.42857 35.5929 5.42857 32C5.42857 28.4071 6.12857 24.9286 7.51429 21.6571C8.84863 18.4977 10.7845 15.6277 13.2143 13.2071C15.6571 10.7643 18.5 8.85 21.6643 7.50714C24.9286 6.12857 28.4071 5.42857 32 5.42857C35.5929 5.42857 39.0714 6.12857 42.3429 7.51429C45.5024 8.84863 48.3723 10.7845 50.7929 13.2143C53.2357 15.6571 55.15 18.5 56.4929 21.6643C57.8714 24.9286 58.5714 28.4071 58.5714 32C58.5714 35.5929 57.8714 39.0714 56.4857 42.3429C55.153 45.5011 53.2168 48.369 50.7857 50.7857ZM42.8571 33.5H39.4214C39.1214 33.5 38.8643 33.7286 38.8429 34.0286C38.5714 37.5643 35.6071 40.3571 32 40.3571C28.3929 40.3571 25.4214 37.5643 25.1571 34.0286C25.1357 33.7286 24.8786 33.5 24.5786 33.5H21.1429C21.0654 33.4999 20.9886 33.5156 20.9174 33.5461C20.8461 33.5765 20.7818 33.6212 20.7284 33.6773C20.6749 33.7335 20.6334 33.7999 20.6064 33.8725C20.5795 33.9452 20.5676 34.0226 20.5714 34.1C20.8857 40.1214 25.8929 44.9286 32 44.9286C38.1071 44.9286 43.1143 40.1214 43.4286 34.1C43.4324 34.0226 43.4205 33.9452 43.3936 33.8725C43.3666 33.7999 43.3251 33.7335 43.2717 33.6773C43.2182 33.6212 43.1539 33.5765 43.0826 33.5461C43.0114 33.5156 42.9347 33.4999 42.8571 33.5Z" fill="white"/>
</svg>
