<svg width="101" height="100" viewBox="0 0 101 100" fill="none" xmlns="http://www.w3.org/2000/svg">
<g id="vuesax/linear/people">
<g id="people">
<g id="Group">
<path id="Vector" d="M75.5 29.833C75.25 29.7914 74.9583 29.7914 74.7083 29.833C68.9583 29.6247 64.375 24.9163 64.375 19.083C64.375 13.1247 69.1667 8.33301 75.125 8.33301C81.0833 8.33301 85.875 13.1663 85.875 19.083C85.8333 24.9163 81.25 29.6247 75.5 29.833Z" fill="#F09223"/>
<path id="Vector_2" d="M71.2083 60.166C76.9166 61.1244 83.2083 60.1244 87.6249 57.166C93.4999 53.2494 93.4999 46.8327 87.6249 42.916C83.1666 39.9577 76.7916 38.9577 71.0833 39.9577" fill="#F09223"/>
</g>
<g id="Group_2">
<path id="Vector_3" d="M25.3749 29.833C25.6249 29.7914 25.9166 29.7914 26.1666 29.833C31.9166 29.6247 36.4999 24.9163 36.4999 19.083C36.4999 13.1247 31.7083 8.33301 25.7499 8.33301C19.7916 8.33301 14.9999 13.1663 14.9999 19.083C15.0416 24.9163 19.6249 29.6247 25.3749 29.833Z" fill="#F09223"/>
<path id="Vector_4" d="M29.6667 60.166C23.9583 61.1244 17.6667 60.1244 13.25 57.166C7.375 53.2494 7.375 46.8327 13.25 42.916C17.7083 39.9577 24.0833 38.9577 29.7917 39.9577" fill="#F09223"/>
</g>
<g id="Group_3">
<path id="Vector_5" d="M50.5001 60.958C50.2501 60.9164 49.9585 60.9164 49.7085 60.958C43.9585 60.7497 39.3751 56.0413 39.3751 50.208C39.3751 44.2497 44.1668 39.458 50.1251 39.458C56.0834 39.458 60.8751 44.2913 60.8751 50.208C60.8335 56.0413 56.2501 60.7914 50.5001 60.958Z" stroke="white" stroke-width="4" stroke-linecap="round" stroke-linejoin="round"/>
<path id="Vector_6" d="M38.375 74.083C32.5 77.9997 32.5 84.4163 38.375 88.333C45.0417 92.7913 55.9583 92.7913 62.625 88.333C68.5 84.4163 68.5 77.9997 62.625 74.083C56 69.6663 45.0417 69.6663 38.375 74.083Z" stroke="white" stroke-width="4" stroke-linecap="round" stroke-linejoin="round"/>
</g>
</g>
</g>
</svg>
