<svg width="180" height="32" viewBox="0 0 180 32" fill="none" xmlns="http://www.w3.org/2000/svg">
<g id="Group 103">
<path id="Star 1" d="M15.0489 2.92705C15.3483 2.00574 16.6517 2.00574 16.9511 2.92705L19.3677 10.3647C19.5016 10.7768 19.8855 11.0557 20.3188 11.0557H28.1392C29.1079 11.0557 29.5107 12.2953 28.727 12.8647L22.4001 17.4615C22.0496 17.7161 21.903 18.1675 22.0369 18.5795L24.4535 26.0172C24.7529 26.9385 23.6984 27.7047 22.9147 27.1353L16.5878 22.5385C16.2373 22.2839 15.7627 22.2839 15.4122 22.5385L9.08533 27.1353C8.30162 27.7047 7.24714 26.9385 7.54649 26.0172L9.96315 18.5795C10.097 18.1675 9.95036 17.7161 9.59987 17.4615L3.27299 12.8647C2.48928 12.2953 2.89206 11.0557 3.86078 11.0557H11.6812C12.1145 11.0557 12.4984 10.7768 12.6323 10.3647L15.0489 2.92705Z" fill="#F1B10D"/>
<path id="Star 2" d="M52.0489 2.92705C52.3483 2.00574 53.6517 2.00574 53.9511 2.92705L56.3677 10.3647C56.5016 10.7768 56.8855 11.0557 57.3188 11.0557H65.1392C66.1079 11.0557 66.5107 12.2953 65.727 12.8647L59.4001 17.4615C59.0496 17.7161 58.903 18.1675 59.0369 18.5795L61.4535 26.0172C61.7529 26.9385 60.6984 27.7047 59.9147 27.1353L53.5878 22.5385C53.2373 22.2839 52.7627 22.2839 52.4122 22.5385L46.0853 27.1353C45.3016 27.7047 44.2471 26.9385 44.5465 26.0172L46.9631 18.5795C47.097 18.1675 46.9504 17.7161 46.5999 17.4615L40.273 12.8647C39.4893 12.2953 39.8921 11.0557 40.8608 11.0557H48.6812C49.1145 11.0557 49.4984 10.7768 49.6323 10.3647L52.0489 2.92705Z" fill="#F1B10D"/>
<path id="Star 3" d="M89.0489 2.92705C89.3483 2.00574 90.6517 2.00574 90.9511 2.92705L93.3677 10.3647C93.5016 10.7768 93.8855 11.0557 94.3188 11.0557H102.139C103.108 11.0557 103.511 12.2953 102.727 12.8647L96.4001 17.4615C96.0496 17.7161 95.903 18.1675 96.0369 18.5795L98.4535 26.0172C98.7529 26.9385 97.6984 27.7047 96.9147 27.1353L90.5878 22.5385C90.2373 22.2839 89.7627 22.2839 89.4122 22.5385L83.0853 27.1353C82.3016 27.7047 81.2471 26.9385 81.5465 26.0172L83.9631 18.5795C84.097 18.1675 83.9504 17.7161 83.5999 17.4615L77.273 12.8647C76.4893 12.2953 76.8921 11.0557 77.8608 11.0557H85.6812C86.1145 11.0557 86.4984 10.7768 86.6323 10.3647L89.0489 2.92705Z" fill="#F1B10D"/>
<path id="Star 4" d="M126.049 2.92705C126.348 2.00574 127.652 2.00574 127.951 2.92705L130.368 10.3647C130.502 10.7768 130.886 11.0557 131.319 11.0557H139.139C140.108 11.0557 140.511 12.2953 139.727 12.8647L133.4 17.4615C133.05 17.7161 132.903 18.1675 133.037 18.5795L135.454 26.0172C135.753 26.9385 134.698 27.7047 133.915 27.1353L127.588 22.5385C127.237 22.2839 126.763 22.2839 126.412 22.5385L120.085 27.1353C119.302 27.7047 118.247 26.9385 118.546 26.0172L120.963 18.5795C121.097 18.1675 120.95 17.7161 120.6 17.4615L114.273 12.8647C113.489 12.2953 113.892 11.0557 114.861 11.0557H122.681C123.114 11.0557 123.498 10.7768 123.632 10.3647L126.049 2.92705Z" fill="#F1B10D"/>
<path id="Star 5" d="M163.049 2.92705C163.348 2.00574 164.652 2.00574 164.951 2.92705L167.368 10.3647C167.502 10.7768 167.886 11.0557 168.319 11.0557H176.139C177.108 11.0557 177.511 12.2953 176.727 12.8647L170.4 17.4615C170.05 17.7161 169.903 18.1675 170.037 18.5795L172.454 26.0172C172.753 26.9385 171.698 27.7047 170.915 27.1353L164.588 22.5385C164.237 22.2839 163.763 22.2839 163.412 22.5385L157.085 27.1353C156.302 27.7047 155.247 26.9385 155.546 26.0172L157.963 18.5795C158.097 18.1675 157.95 17.7161 157.6 17.4615L151.273 12.8647C150.489 12.2953 150.892 11.0557 151.861 11.0557H159.681C160.114 11.0557 160.498 10.7768 160.632 10.3647L163.049 2.92705Z" fill="#F1B10D"/>
</g>
</svg>
